<svg width="36" height="39" viewBox="0 0 36 39" fill="none" xmlns="http://www.w3.org/2000/svg">
<path d="M26.9999 19.493C26.9999 19.8625 27.1458 20.2169 27.4054 20.4782C27.6651 20.7395 28.0173 20.8863 28.3845 20.8863C29.6698 20.8863 30.9024 21.4001 31.8113 22.3146C32.7201 23.2292 33.2307 24.4696 33.2307 25.763C33.2307 27.0564 32.7201 28.2968 31.8113 29.2113C30.9024 30.1259 29.6698 30.6397 28.3845 30.6397H16.4768C16.1337 28.9481 15.1786 27.445 13.7968 26.4218C12.4149 25.3985 10.7047 24.9281 8.99776 25.1016C7.2908 25.2751 5.70868 26.0803 4.55811 27.3609C3.40754 28.6416 2.77051 30.3066 2.77051 32.033C2.77051 33.7595 3.40754 35.4245 4.55811 36.7051C5.70868 37.9858 7.2908 38.7909 8.99776 38.9645C10.7047 39.138 12.4149 38.6675 13.7968 37.6443C15.1786 36.6211 16.1337 35.118 16.4768 33.4264H28.3845C30.4043 33.4264 32.3413 32.619 33.7694 31.1818C35.1976 29.7447 35.9999 27.7954 35.9999 25.763C35.9999 23.7305 35.1976 21.7813 33.7694 20.3442C32.3413 18.907 30.4043 18.0996 28.3845 18.0996C28.0173 18.0996 27.6651 18.2464 27.4054 18.5077C27.1458 18.769 26.9999 19.1234 26.9999 19.493ZM9.69218 36.2131C8.87063 36.2131 8.06752 35.9679 7.38443 35.5086C6.70133 35.0493 6.16892 34.3965 5.85452 33.6327C5.54013 32.8689 5.45787 32.0284 5.61815 31.2176C5.77842 30.4067 6.17404 29.6619 6.75497 29.0773C7.33589 28.4927 8.07604 28.0946 8.88181 27.9333C9.68758 27.772 10.5228 27.8548 11.2818 28.1712C12.0408 28.4876 12.6896 29.0233 13.146 29.7107C13.6024 30.3981 13.846 31.2063 13.846 32.033C13.846 33.1416 13.4084 34.2049 12.6294 34.9888C11.8504 35.7727 10.7939 36.2131 9.69218 36.2131Z" fill="#004D44"/>
<path d="M7.6154 20.8862H19.5023L19.0939 21.2973C18.8341 21.5587 18.6881 21.9133 18.6881 22.283C18.6881 22.6528 18.8341 23.0074 19.0939 23.2688C19.3537 23.5303 19.7061 23.6772 20.0735 23.6772C20.4409 23.6772 20.7933 23.5303 21.0531 23.2688L23.8223 20.4821C23.887 20.4161 23.945 20.3438 23.9954 20.2662C23.9954 20.2662 24.03 20.1965 24.0508 20.1617C24.1038 20.0786 24.1413 19.9865 24.1616 19.89C24.1616 19.8482 24.1616 19.8133 24.1962 19.7715C24.2316 19.5922 24.2316 19.4075 24.1962 19.2281C24.1962 19.1863 24.1962 19.1515 24.1616 19.1097C24.1413 19.0131 24.1038 18.9211 24.0508 18.838C24.0508 18.8032 24.0162 18.7683 23.9954 18.7335C23.945 18.6559 23.887 18.5836 23.8223 18.5175L21.0531 15.7309C20.7933 15.4694 20.4409 15.3225 20.0735 15.3225C19.7061 15.3225 19.3537 15.4694 19.0939 15.7309C18.8341 15.9923 18.6881 16.3469 18.6881 16.7166C18.6881 17.0864 18.8341 17.441 19.0939 17.7024L19.5023 18.1135H7.6154C6.33012 18.1135 5.09748 17.5997 4.18864 16.6851C3.27981 15.7706 2.76924 14.5302 2.76924 13.2368C2.76924 11.9434 3.27981 10.703 4.18864 9.78842C5.09748 8.87387 6.33012 8.36007 7.6154 8.36007H19.5231C19.8662 10.0516 20.8213 11.5548 22.2032 12.578C23.585 13.6012 25.2952 14.0717 27.0022 13.8982C28.7091 13.7246 30.2912 12.9195 31.4418 11.6388C32.5924 10.3581 33.2294 8.69319 33.2294 6.96673C33.2294 5.24027 32.5924 3.57531 31.4418 2.29464C30.2912 1.01396 28.7091 0.208819 27.0022 0.0352941C25.2952 -0.13823 23.585 0.332229 22.2032 1.35546C20.8213 2.3787 19.8662 3.88181 19.5231 5.57339H7.6154C5.59567 5.57339 3.65866 6.38078 2.2305 7.81794C0.802334 9.2551 0 11.2043 0 13.2368C0 15.2692 0.802334 17.2184 2.2305 18.6556C3.65866 20.0928 5.59567 20.9002 7.6154 20.9002V20.8862ZM26.3077 2.77277C27.1293 2.77277 27.9324 3.01792 28.6155 3.47723C29.2986 3.93654 29.831 4.58937 30.1454 5.35317C30.4598 6.11697 30.5421 6.95743 30.3818 7.76828C30.2215 8.57912 29.8259 9.32393 29.245 9.90852C28.664 10.4931 27.9239 10.8912 27.1181 11.0525C26.3123 11.2138 25.4771 11.131 24.7181 10.8146C23.9591 10.4983 23.3104 9.9625 22.8539 9.27509C22.3975 8.58769 22.1539 7.77953 22.1539 6.95279C22.1539 5.84418 22.5915 4.78098 23.3705 3.99707C24.1495 3.21316 25.2061 2.77277 26.3077 2.77277Z" fill="#004D44"/>
<path d="M10.1009 30.3536L8.95858 31.5031C8.66574 31.3479 8.32734 31.3034 8.00469 31.3777C7.68204 31.4519 7.39649 31.64 7.19978 31.9079C7.00307 32.1757 6.90822 32.5056 6.93242 32.8378C6.95661 33.17 7.09824 33.4824 7.33166 33.7186L8.02397 34.4152C8.15256 34.5448 8.30527 34.6476 8.47336 34.7177C8.64145 34.7878 8.82162 34.8239 9.00358 34.8239C9.18554 34.8239 9.36572 34.7878 9.53381 34.7177C9.7019 34.6476 9.85461 34.5448 9.9832 34.4152L12.0601 32.3252C12.1888 32.1958 12.2908 32.0421 12.3604 31.8729C12.4301 31.7038 12.4659 31.5225 12.4659 31.3394C12.4659 31.1564 12.4301 30.9751 12.3604 30.8059C12.2908 30.6368 12.1888 30.4831 12.0601 30.3536C11.9315 30.2242 11.7788 30.1215 11.6107 30.0514C11.4426 29.9814 11.2624 29.9453 11.0805 29.9453C10.8986 29.9453 10.7184 29.9814 10.5503 30.0514C10.3823 30.1215 10.2295 30.2242 10.1009 30.3536Z" fill="#004D44"/>
</svg>
